PathFileType	4	(X/Y/Z)	Patient4_TMGait_0pt6_01_right_10.trc.trc
DataRate	CameraRate	NumFrames	NumMarkers	Units	OrigDataRate	OrigDataStartFrame	OrigNumFrames
82.352941176471	82.352941176471	4	33	mm	82.352941176471	53	       141
Frame#	Time	Sacral			L.Shoulder			Chest			R.Shoulder			Neck			R.ASIS			L.ASIS			R.Thigh.Superior			R.Thigh.Lateral			R.Thigh.Inferior			R.Patella			L.Thigh.Superior			L.Thigh.Lateral			L.Thigh.Inferior			L.Patella			L.Shank.Superior			L.Shank.Lateral			L.Shank.Inferior			R.Shank.Superior			R.Shank.Lateral			R.Shank.Inferior			R.Heel			R.Midfoot.Superior			R.Midfoot.Lateral			R.Toe			L.Heel			L.Midfoot.Lateral			L.Midfoot.Superior			L.Toe			L.Elbow			L.Wrist			R.Elbow			R.Wrist			
		X1	Y1	Z1	X2	Y2	Z2	X3	Y3	Z3	X4	Y4	Z4	X5	Y5	Z5	X6	Y6	Z6	X7	Y7	Z7	X8	Y8	Z8	X9	Y9	Z9	X10	Y10	Z10	X11	Y11	Z11	X12	Y12	Z12	X13	Y13	Z13	X14	Y14	Z14	X15	Y15	Z15	X16	Y16	Z16	X17	Y17	Z17	X18	Y18	Z18	X19	Y19	Z19	X20	Y20	Z20	X21	Y21	Z21	X22	Y22	Z22	X23	Y23	Z23	X24	Y24	Z24	X25	Y25	Z25	X26	Y26	Z26	X27	Y27	Z27	X28	Y28	Z28	X29	Y29	Z29	X30	Y30	Z30	X31	Y31	Z31	X32	Y32	Z32	X33	Y33	Z33	

53	12.191428571429	636.798344421912	1009.108081826802	507.431824938825	788.240868180140	1428.953226304216	294.320817781613	907.034157249657	1366.954659028418	447.315521329549	841.012058094390	1447.030723846371	624.907910864416	789.414793851467	1495.563159038772	445.508797210862	872.475054243665	943.423844197878	605.341073668861	836.552622104201	965.809591495228	333.431286608846	904.585375830479	737.458521601268	573.143427020620	817.406597661255	632.744985151139	633.539952327230	886.402896145264	577.461987273280	549.019391771858	880.336122202052	488.537858480089	552.144924873896	930.223462288677	794.500519263512	374.862120854194	899.430971954321	664.870405029868	298.981599397272	1002.525721529099	608.521343868809	366.917092468241	1022.713439637563	519.532784683041	360.435267363499	963.432680451705	447.698321083228	350.659067803225	828.669459818852	387.895633904864	302.636150933717	835.380195981251	257.648214408061	355.306523131322	848.659895178763	400.853684202302	559.334178303849	773.478119548944	299.611665913687	619.470653896325	810.139216795975	204.385341117043	554.664239589683	669.032877333845	41.966210867429	521.674055165763	839.977499484422	96.697356855479	562.114690912166	749.964318525296	36.261395096347	599.365108618047	958.685931136070	42.534271127394	595.749073887674	657.746008044166	173.465784881866	398.414270566143	713.725728358111	132.600825550305	314.748933931023	818.129283998945	149.101579351145	330.587711760914	902.164158820983	43.130120170804	297.923038464863	723.576784999702	1071.347135017083	208.665276795291	741.446159118949	813.869977815315	206.482469218349	890.344776163941	1115.745646275519	772.316922660966	1126.591518575090	1047.164187648418	703.257869649406	
54	12.203571428571	636.024093484103	1010.240808863420	508.334699643469	787.692524773099	1429.538312876737	294.953370468812	907.444918712471	1366.919253490962	446.954308898523	843.222949073003	1447.373580663601	625.011904813022	790.188068810934	1495.939618654438	446.036292895575	871.778479406703	943.349229261725	605.194474404866	834.951382305275	966.469858883598	333.376958238826	901.134195199316	736.576136037902	572.745674781870	812.947468510689	632.910454232550	633.718597381983	880.679608519375	576.751056631581	548.903130205073	873.586721985691	488.261948394197	552.125536032821	929.534791373192	797.152061397495	375.388617809225	899.797922699088	666.802780842694	299.618045096583	1003.353520834149	611.681854559467	367.431611784545	1025.158056987753	523.994162890865	361.037693965800	969.684919946116	450.680281123815	351.244386700862	839.005313627069	382.690174515907	303.716334571368	854.431222133239	252.973884577461	356.240067025830	841.891565856585	400.747751455545	559.400936775083	766.645754812636	299.655558113881	619.675824371865	803.014290958907	204.350421158615	554.746957588090	661.687929033872	41.971221261772	521.775278403032	832.610610980112	96.657884445715	562.191704787895	742.612074658925	36.218525594311	599.346582722730	951.327997066873	42.457825535317	595.808064393240	683.161846940860	156.105315777774	400.218687337154	741.644771450411	120.186026440975	316.028159422159	844.513438841525	144.327952424377	331.453254444263	936.092881071436	45.567037887574	297.790648102791	715.846760720155	1073.059350357175	211.097744885617	728.418047684068	815.267373586069	210.208507957975	901.855118642241	1117.279265864145	770.373635071291	1140.001414000371	1064.601957307771	696.185007074404	
55	12.215714285714	635.283115388351	1011.260926445635	509.118637779596	787.219326162790	1430.008525212939	295.535628548183	907.913824870590	1366.755348204028	446.546294543972	845.459967189416	1447.562409204370	625.043124908958	790.967328434758	1496.192357044326	446.531079548456	871.138748669361	943.141366159800	604.929850351057	833.435819767362	966.983934478391	333.207790334395	897.712530471219	735.633674036443	572.263121481343	808.608262733115	632.994515573219	633.856470447019	875.079806869742	575.994624027074	548.758038927253	866.993005795664	487.950210946640	552.110766435891	928.549953379766	799.180010837295	375.554775906771	899.394776327475	668.142195844797	299.993652633533	1003.206128364812	613.977250041305	367.748942546736	1026.498011376060	527.875206244843	361.472247980685	975.110205315540	453.311075151385	351.735041748562	849.481004365830	376.871102175174	304.383049922731	873.812103464352	248.329711373534	357.100891756873	835.251186792855	400.600628585699	559.449847533935	759.908632921845	299.673611740252	619.858752150385	795.941848837736	204.280197758792	554.811614983895	654.370091713349	41.974276020802	521.897389151765	825.249144365880	96.611070282823	562.257621678626	735.268647036580	36.177357462848	599.325193901922	943.976862595032	42.364442652693	595.863499960961	709.922529534818	138.789960382467	401.450444958303	771.020112021416	107.934838813752	317.155110692420	871.692467463207	139.861977403300	332.548625896436	970.679397361743	48.905319997673	298.688159844741	708.575487744887	1074.754966577112	213.511215186255	716.187728499187	816.766256047841	213.793436029638	913.382781453957	1118.855248050458	768.041359155805	1152.288032797633	1081.612657734161	689.006271027365	
56	12.227857142857	634.591911827714	1012.126185932789	509.778681065663	786.838622099918	1430.336362717035	296.051327503372	908.433256097322	1366.446033017661	446.098141029075	847.675305434802	1447.572887689297	624.997861858734	791.746618516064	1496.300682764858	446.980198706532	870.565514660799	942.791412567315	604.545777105209	832.035236049999	967.320878335000	332.923076519978	894.376439983669	734.636038849693	571.713426603552	804.442945061098	632.982723845194	633.953741919287	869.676818416387	575.188744086297	548.595730521481	860.630546765578	487.584359825846	552.100731683054	927.291693234527	800.525630780560	375.407993734477	898.319567887100	668.862575959133	300.100693638411	1002.141339427618	615.373224293289	367.955449687643	1026.818963201662	531.141893873245	361.827977708425	979.711587602375	455.598712896449	352.197095204710	860.098107657596	370.708270524784	304.611346797195	893.228247317270	244.027370887559	357.917408249305	828.794504021384	400.392744972197	559.477016411295	753.302776981242	299.658651831289	620.011772751610	788.945204247274	204.165681962202	554.855894263137	647.072392433042	41.978037955029	522.031816395270	817.894976888169	96.556634675581	562.310228353244	727.934071163066	36.140452357990	599.307199673253	936.634205890815	42.256622671956	595.917274162803	737.602491696039	122.191466054232	402.044015935695	801.414679008989	96.431631414276	318.108475436737	899.210502170542	136.075658007051	333.895881901578	1005.249430664628	53.362001245460	300.720655615431	701.827490824088	1076.374044327613	215.868462180823	704.803017583951	818.288651910952	217.201865386423	924.865915330148	1120.456889353136	765.337844986021	1163.507437311614	1098.023492793031	681.767179215945	
